Coordinates
version=1
nRows=7
nColumns=33
inDegrees=yes

Units are S.I. units (second, meters, Newtons, ...)
Angles are in degrees.

endheader
time	ground_thorax_rot_x	ground_thorax_rot_y	ground_thorax_rot_z	ground_thorax_tx	ground_thorax_ty	ground_thorax_tz	clav_prot_r	clav_elev_r	scapula_abduction_r	scapula_elevation_r	scapula_upward_rot_r	scapula_winging_r	shoulder_elv_r	plane_of_elev_r	axial_rot_r	elbow_flexion_r	pro_sup_r	wrist_flex_r	wrist_dev_r	clav_prot_l	clav_elev_l	scapula_abduction_l	scapula_elevation_l	scapula_upward_rot_l	scapula_winging_l	shoulder_elv_l	plane_of_elev_l	axial_rot_l	elbow_flexion_l	pro_sup_l	wrist_flex_l	wrist_dev_l
      3.78000000	    -30.38411077	    -25.45720783	     36.67340242	    -99.44044713	    776.03227282	      9.13484065	      9.01220679	    -45.00000000	     40.52084421	    -45.00000000	    -45.00000000	  -4052.73165046	  -3710.84338772	    146.76519773	    179.99999979	   1443.06378954	     47.10891613	     21.53131521	     17.69023500	     15.61139938	     38.27409046	    -34.91993483	    -45.00000000	    -45.00000000	    796.91377320	  -1176.97067105	    134.44611323	   -179.99999979	   -351.66027863	     27.57805965	     11.38411684	    -20.25610556
      3.79000000	    -30.64680693	    -25.09850729	     36.23407839	   -102.19889600	    777.16237197	      9.02464660	      9.00918966	    -45.00000000	     40.47332465	    -45.00000000	    -45.00000000	  -4052.84573351	  -3710.55782146	    146.57590085	    179.99999979	   1443.27068271	     46.86653734	     21.66941850	     17.66882802	     15.61821240	     38.30042572	    -35.19089822	    -45.00000000	    -45.00000000	    797.24866302	  -1176.79232241	    134.35257203	   -179.99999979	   -351.54994498	     26.98629762	     11.29345833	    -20.27873768
      3.80000000	    -30.82235986	    -24.77865121	     35.85468132	   -105.06326124	    778.38420138	      8.91426730	      8.98965416	    -45.00000000	     40.61878906	    -45.00000000	    -45.00000000	  -4052.99839474	  -3710.29052054	    146.43766426	    179.99999979	   1443.56933927	     46.63185214	     21.82682890	     17.64434424	     15.65684790	     38.31147254	    -35.36778057	    -45.00000000	    -45.00000000	    797.52737545	  -1176.61548989	    134.29511621	   -179.99999979	   -351.37937530	     26.36062910	     11.17563100	    -20.30170963
      3.81000000	    -31.07592384	    -24.41639319	     35.42495625	   -108.02758067	    779.69535213	      8.80348650	      8.98059997	    -45.00000000	     40.60235666	    -45.00000000	    -45.00000000	  -4053.11143992	  -3709.99749492	    146.28522782	    179.99999979	   1443.82887018	     46.43259411	     21.97314802	     17.58517593	     15.67195844	     38.36358839	    -35.61314568	    -45.00000000	    -45.00000000	    797.83020325	  -1176.39384349	    134.22921214	   -179.99999979	   -351.22756410	     25.75365947	     11.05586800	    -20.33379397
      3.82000000	    -31.35087980	    -24.01532146	     34.96481835	   -111.08341141	    781.09099935	      8.69193160	      8.94919789	    -45.00000000	     40.58998915	    -45.00000000	    -45.00000000	  -4053.25005454	  -3709.72673999	    146.13160380	    179.99999979	   1444.11175730	     46.27942075	     22.14246638	     17.52009878	     15.67533164	     38.42355252	    -35.85280161	    -45.00000000	    -45.00000000	    798.11713174	  -1176.16268072	    134.17477582	   -179.99999979	   -351.06067939	     25.16969318	     10.93675981	    -20.37856047
      3.83000000	    -31.54341752	    -23.69911849	     34.55452949	   -114.22986864	    782.56850452	      8.57836127	      8.91746865	    -45.00000000	     40.72721697	    -45.00000000	    -45.00000000	  -4053.40207903	  -3709.41002449	    145.97294435	    179.99999979	   1444.42871104	     46.16903379	     22.30556238	     17.44593029	     15.71558141	     38.38405248	    -36.02191873	    -45.00000000	    -45.00000000	    798.40933308	  -1175.95359643	    134.14275828	   -179.99999979	   -350.93005291	     24.56061699	     10.80571205	    -20.40270901
      3.84000000	    -31.76896460	    -23.37759562	     34.12698472	   -117.46221618	    784.12177807	      8.46152242	      8.90993267	    -45.00000000	     40.87506363	    -45.00000000	    -45.00000000	  -4053.57714502	  -3709.15802154	    145.84182892	    179.99999979	   1444.77854624	     46.11144992	     22.49597512	     17.37127806	     15.78356185	     38.42369514	    -36.18543500	    -45.00000000	    -45.00000000	    798.71997194	  -1175.72164388	    134.08862864	   -179.99999979	   -350.81930193	     23.91147913	     10.63738161	    -20.41378521
